<?xml version="1.0" encoding="UTF-8"?>
<svg id="Layer_2" data-name="Layer 2" xmlns="http://www.w3.org/2000/svg" viewBox="0 0 395.79 438.31">
  <defs>
    <style>
      .gerbcls-1 {
        fill-rule: evenodd;
      }

      .gerbcls-1, .gerbcls-2 {
        fill: #5600d1;
        stroke-width: 0px;
      }
    </style>
  </defs>
  <g id="Layer_1-2" data-name="Layer 1">
    <g>
      <path class="gerbcls-1" d="M353.24,165.23c121.62,131.78-45.82,241.18-148.31,132.75l-98.84-104.56c-2.26-2.39-6.07-2.39-8.33,0-2.33,2.46-4.89,5.17-7.72,8.18-15.49,16.46-16.41,34.89-8.53,46.48,14.45,21.25,47.23,54.52,70.7,78.68,5.3,5.45,2.23,14.6-5.28,15.77-38.43,5.97-78.95,1.74-109.1-26.02-8.26-7.6-8.11-7.67-15.55-16.16-30.07-34.36-35.35-91.12,19.85-148.22C90.31,102.3,139.02,52.91,187.54,3.44c4.59-4.68,12.16-4.57,16.61.25l149.09,161.54Z"/>
      <path class="gerbcls-2" d="M190.57,360.55l-54.9,61.37c-5.67,6.33-1.17,16.38,7.33,16.38h109.79c8.5,0,13-10.05,7.33-16.38l-54.9-61.37c-3.91-4.37-10.75-4.37-14.66,0"/>
    </g>
  </g>
</svg>